<?xml version="1.0" standalone="no"?>
<!DOCTYPE svg PUBLIC "-//W3C//DTD SVG 20010904//EN"
 "http://www.w3.org/TR/2001/REC-SVG-20010904/DTD/svg10.dtd">
<svg version="1.0" xmlns="http://www.w3.org/2000/svg"
 width="500.000000pt" height="500.000000pt" viewBox="0 0 500.000000 500.000000"
 preserveAspectRatio="xMidYMid meet">
<metadata>
Created by potrace 1.11, written by Peter Selinger 2001-2013
</metadata>
<g transform="translate(0.000000,500.000000) scale(0.100000,-0.100000)"
fill="#000000" stroke="none">
<path d="M2561 4057 c-54 -116 -77 -264 -51 -331 5 -14 7 -26 3 -26 -16 0 -97
77 -108 103 -15 35 -17 32 -43 -55 -52 -168 -49 -300 10 -419 l33 -65 -53 37
c-29 20 -97 56 -153 79 -55 23 -106 51 -113 62 -12 17 -14 17 -20 3 -12 -33
-6 -102 13 -139 l20 -38 -35 7 c-61 11 -157 7 -203 -9 -48 -17 -120 -68 -165
-115 l-30 -31 73 0 c64 0 81 -4 128 -31 32 -19 70 -32 93 -33 22 0 39 -3 37
-6 -1 -3 -15 -30 -31 -60 -34 -65 -40 -130 -13 -157 16 -16 17 -16 17 2 0 11
9 35 20 53 17 27 26 32 57 32 21 0 52 -9 70 -19 l31 -20 -24 -46 c-13 -26 -29
-74 -35 -106 l-11 -58 -37 29 c-79 64 -207 80 -313 40 -32 -12 -58 -25 -58
-30 0 -5 24 -26 53 -47 l53 -38 -40 -1 c-23 0 -66 -9 -96 -19 -57 -19 -115
-71 -245 -220 l-59 -68 34 -28 c47 -40 122 -63 177 -55 25 3 83 21 129 40 84
34 101 35 65 2 -28 -26 -51 -100 -51 -167 0 -59 13 -85 25 -48 10 30 65 89 94
101 14 6 73 14 131 19 58 4 115 10 126 14 20 6 20 3 -9 -54 -24 -50 -30 -74
-31 -131 0 -38 3 -72 7 -76 3 -4 21 4 39 18 55 41 57 41 42 0 -18 -51 -17
-107 4 -168 19 -53 79 -154 92 -154 4 0 8 23 9 51 1 61 34 139 81 193 l34 38
18 -36 c10 -20 22 -36 27 -36 12 0 40 104 47 176 22 205 -107 372 -330 429
-84 21 -105 39 -59 49 41 9 137 -19 202 -59 31 -19 69 -35 84 -35 39 0 104 62
118 114 11 39 7 134 -7 199 -6 24 -4 27 20 27 96 0 172 53 201 140 14 41 15
70 10 159 -5 77 -4 110 4 115 19 12 44 -62 49 -146 4 -64 0 -92 -22 -162 -14
-46 -26 -95 -26 -108 0 -33 25 -54 83 -68 26 -7 47 -14 47 -15 0 -1 -15 -28
-34 -60 -41 -67 -60 -143 -46 -180 14 -38 49 -47 112 -29 197 57 216 61 265
48 33 -9 17 -24 -25 -24 -137 -1 -302 -102 -302 -186 0 -40 21 -87 48 -106 42
-30 52 -88 31 -174 -6 -25 -9 -47 -6 -50 3 -4 28 2 56 11 82 27 149 117 152
205 0 14 3 19 6 12 9 -22 81 -52 125 -52 24 0 70 12 103 26 103 44 124 49 155
37 25 -9 29 -8 34 10 6 24 -14 59 -53 93 l-26 23 33 1 c52 0 107 -34 143 -90
18 -27 36 -50 40 -50 13 0 19 31 19 102 0 58 -5 79 -27 120 -31 56 -95 111
-151 128 -71 22 -69 20 -44 40 13 11 39 22 57 26 30 5 33 9 25 24 -18 34 -92
53 -179 47 -79 -5 -131 -23 -201 -68 -34 -22 -33 -21 12 28 53 58 83 111 91
167 4 24 15 44 29 55 38 26 98 83 98 92 0 5 -18 9 -40 9 -22 0 -72 13 -113 29
-40 16 -83 31 -95 33 -20 3 -16 8 29 37 118 77 262 111 327 77 42 -21 42 -6 3
57 -34 53 -107 110 -164 127 -54 16 -137 14 -181 -4 -20 -8 -36 -14 -36 -12 0
2 7 21 16 42 20 47 13 98 -17 130 -28 30 -35 30 -43 0 -4 -15 -36 -48 -78 -81
-40 -31 -82 -71 -95 -88 l-23 -31 0 33 c0 38 13 64 91 183 77 117 93 173 87
298 -3 53 -9 104 -15 114 -8 15 -12 11 -27 -29 -15 -38 -26 -50 -66 -70 -26
-13 -56 -38 -67 -55 l-20 -32 -6 54 c-9 89 -42 158 -117 249 -39 46 -73 95
-76 109 -15 68 -21 68 -53 -3z"/>
<path d="M2605 2578 c-37 -44 -68 -128 -80 -220 l-6 -46 -56 29 c-81 43 -86
39 -47 -38 51 -101 65 -180 71 -403 6 -225 -7 -393 -34 -448 l-18 -37 -150
-12 c-106 -8 -183 -9 -263 -2 -62 6 -167 9 -235 8 -170 -3 -243 -1 -307 10
-36 6 -117 4 -237 -5 -179 -13 -252 -10 -316 15 -17 7 -35 7 -45 2 -9 -4 -23
-6 -29 -4 -7 3 -13 0 -13 -5 0 -6 -9 -8 -20 -5 -11 3 -20 14 -20 25 0 26 -24
18 -28 -10 -3 -21 31 -65 42 -55 3 4 6 2 6 -3 0 -5 26 -10 58 -11 67 -2 423
-14 437 -14 6 -1 54 2 107 6 66 5 108 3 133 -5 28 -9 39 -9 51 1 12 10 26 9
69 -1 38 -9 81 -11 147 -5 106 8 120 9 318 7 80 -1 188 2 240 6 56 5 156 3
244 -4 96 -7 167 -7 200 -1 28 5 69 6 91 3 45 -7 215 -18 285 -19 25 -1 101 3
170 7 233 16 313 6 340 -44 6 -12 26 -30 43 -40 28 -17 51 -20 175 -20 l142 0
0 120 0 120 -149 0 c-146 0 -150 -1 -180 -25 -16 -14 -33 -35 -36 -46 -6 -19
-12 -20 -58 -14 -91 11 -286 15 -311 5 -18 -6 -28 -5 -36 5 -7 8 -17 12 -23 8
-27 -16 -201 -19 -243 -3 -18 7 -30 7 -40 -1 -9 -7 -30 -8 -66 -2 -29 4 -89 8
-132 8 -78 0 -80 1 -98 31 -27 46 -58 250 -65 419 -9 234 20 366 99 444 l40
41 -39 0 c-27 0 -53 -9 -78 -26 l-38 -25 5 118 c3 71 12 135 21 161 9 23 12
42 7 42 -4 0 -25 -19 -45 -42z"/>
<path d="M4087 1443 c-4 -3 -7 -44 -7 -90 l0 -83 45 0 45 0 0 90 0 90 -38 0
c-21 0 -42 -3 -45 -7z"/>
<path d="M4180 1360 c0 -89 0 -90 25 -90 25 0 25 1 25 90 0 89 0 90 -25 90
-25 0 -25 -1 -25 -90z"/>
<path d="M1230 1075 l0 -125 70 0 c56 0 70 3 70 15 0 12 -13 15 -55 15 l-55 0
0 40 0 40 40 0 c29 0 40 4 40 15 0 11 -11 15 -40 15 l-40 0 0 40 0 40 55 0
c42 0 55 3 55 15 0 12 -14 15 -70 15 l-70 0 0 -125z"/>
<path d="M1400 1075 c0 -118 1 -125 20 -125 19 0 20 7 20 125 0 118 -1 125
-20 125 -19 0 -20 -7 -20 -125z"/>
<path d="M1540 1185 c0 -10 10 -15 30 -15 l30 0 0 -110 c0 -91 3 -110 15 -110
12 0 15 19 15 110 l0 110 30 0 c20 0 30 5 30 15 0 12 -15 15 -75 15 -60 0 -75
-3 -75 -15z"/>
<path d="M1880 1075 c0 -118 1 -125 20 -125 19 0 20 7 20 125 0 118 -1 125
-20 125 -19 0 -20 -7 -20 -125z"/>
<path d="M1960 1075 c0 -104 2 -125 15 -125 13 0 15 21 15 125 0 104 -2 125
-15 125 -13 0 -15 -21 -15 -125z"/>
<path d="M2480 1166 c0 -32 -2 -35 -32 -34 -46 2 -68 -31 -68 -98 0 -68 25
-99 72 -90 17 3 37 6 44 6 11 0 14 26 14 125 0 104 -2 125 -15 125 -10 0 -15
-10 -15 -34z m-6 -82 c15 -39 -1 -114 -24 -114 -19 0 -40 33 -40 65 0 48 9 65
35 65 13 0 26 -7 29 -16z"/>
<path d="M2720 1075 c0 -104 2 -125 15 -125 13 0 15 21 15 125 0 104 -2 125
-15 125 -13 0 -15 -21 -15 -125z"/>
<path d="M2870 1075 c0 -104 2 -125 15 -125 12 0 15 13 15 55 l0 55 40 0 40 0
0 -55 c0 -48 2 -55 20 -55 19 0 20 7 20 125 0 118 -1 125 -20 125 -18 0 -20
-7 -20 -55 l0 -55 -40 0 -40 0 0 55 c0 42 -3 55 -15 55 -13 0 -15 -21 -15
-125z"/>
<path d="M3520 1156 c0 -13 -6 -26 -12 -29 -10 -4 -10 -7 0 -18 7 -7 12 -39
12 -74 0 -34 5 -66 12 -73 17 -17 58 -15 58 3 0 8 -6 15 -14 15 -18 0 -26 22
-26 76 0 37 3 44 20 44 11 0 20 7 20 15 0 8 -9 15 -20 15 -15 0 -20 7 -20 25
0 16 -6 25 -15 25 -9 0 -15 -9 -15 -24z"/>
<path d="M1754 1130 c-21 -8 -39 -38 -29 -48 3 -3 18 1 33 10 30 18 44 14 55
-14 5 -15 1 -18 -26 -18 -41 0 -64 -17 -72 -52 -9 -37 26 -73 63 -63 15 3 37
6 50 6 21 -1 22 3 22 73 0 69 -2 76 -26 95 -29 23 -38 24 -70 11z m66 -114 c0
-13 -25 -46 -35 -46 -28 0 -46 35 -28 53 13 13 63 7 63 -7z"/>
<path d="M2065 1128 c-11 -6 -23 -16 -27 -22 -13 -19 -9 -121 6 -141 19 -26
83 -26 102 0 27 36 6 49 -28 18 -22 -19 -50 -9 -56 21 -3 13 6 16 47 16 l51 0
0 38 c0 57 -52 94 -95 70z m59 -44 c11 -29 6 -34 -29 -34 -27 0 -35 4 -35 18
0 10 3 22 7 25 12 13 51 7 57 -9z"/>
<path d="M2593 1130 c-30 -12 -43 -41 -43 -95 0 -75 55 -116 108 -79 25 17 29
44 7 44 -8 0 -15 -4 -15 -9 0 -13 -27 -21 -45 -15 -8 4 -15 14 -15 25 0 14 9
18 48 21 l47 3 -1 38 c-2 56 -43 86 -91 67z m55 -57 c3 -20 -1 -23 -27 -23
-27 0 -31 4 -31 26 0 22 4 25 28 22 19 -2 28 -9 30 -25z"/>
<path d="M3280 1133 c-38 -14 -50 -36 -50 -94 0 -60 12 -82 50 -94 25 -8 74
15 78 38 4 21 -21 23 -38 2 -16 -19 -25 -19 -44 1 -26 26 -18 34 34 34 l50 0
0 38 c0 56 -37 90 -80 75z m48 -60 c3 -20 -1 -23 -32 -23 -36 0 -41 5 -30 35
10 25 58 16 62 -12z"/>
<path d="M3663 1130 c-30 -12 -43 -41 -43 -95 0 -82 65 -121 115 -70 20 19 25
34 25 73 0 73 -43 113 -97 92z m55 -86 c3 -54 -12 -79 -41 -68 -22 8 -31 62
-18 97 8 21 17 28 34 25 19 -3 22 -10 25 -54z"/>
<path d="M2200 1039 c0 -72 3 -89 15 -89 12 0 15 14 15 63 0 65 11 87 42 87
10 0 18 7 18 15 0 10 -12 14 -45 13 l-45 -1 0 -88z"/>
<path d="M3060 1055 c0 -63 3 -78 21 -96 14 -14 28 -19 42 -15 12 3 32 6 45 6
21 0 22 3 22 90 0 73 -3 90 -15 90 -12 0 -15 -14 -15 -68 0 -84 -19 -111 -54
-76 -11 11 -16 35 -16 80 0 50 -3 64 -15 64 -12 0 -15 -15 -15 -75z"/>
<path d="M3400 1039 c0 -72 3 -89 15 -89 12 0 15 14 15 63 0 65 11 87 42 87
10 0 18 7 18 15 0 10 -12 14 -45 13 l-45 -1 0 -88z"/>
</g>
</svg>
