<?xml version="1.0" standalone="no"?>
<!DOCTYPE svg PUBLIC "-//W3C//DTD SVG 20010904//EN"
 "http://www.w3.org/TR/2001/REC-SVG-20010904/DTD/svg10.dtd">
<svg version="1.0" xmlns="http://www.w3.org/2000/svg"
 width="512.000000pt" height="512.000000pt" viewBox="0 0 512.000000 512.000000"
 preserveAspectRatio="xMidYMid meet">
<metadata>
Created by potrace 1.11, written by Peter Selinger 2001-2013
</metadata>
<g transform="translate(0.000000,512.000000) scale(0.100000,-0.100000)"
fill="#000000" stroke="none">
<path d="M2220 4944 c-952 -129 -1749 -843 -1984 -1779 -54 -214 -61 -279 -61
-595 0 -316 7 -381 61 -595 137 -547 478 -1043 939 -1366 309 -217 690 -366
1058 -414 157 -20 507 -20 664 0 960 125 1761 838 1997 1780 54 214 61 279 61
595 0 316 -7 381 -61 595 -137 547 -478 1043 -939 1366 -309 217 -690 366
-1058 414 -151 19 -529 19 -677 -1z m530 -149 c0 -2 -30 -21 -67 -41 -127 -69
-318 -187 -417 -257 -82 -58 -115 -75 -185 -94 -449 -124 -885 -324 -1289
-589 l-143 -94 71 104 c217 319 513 575 864 746 223 109 459 181 706 215 88
12 460 21 460 10z m523 -112 c906 -301 1527 -1160 1527 -2113 0 -739 -375
-1438 -994 -1852 -366 -245 -802 -378 -1241 -378 -537 0 -1054 195 -1472 554
-195 167 -403 434 -518 663 -68 138 -67 140 98 228 1002 532 1730 1244 2102
2055 117 257 199 533 235 800 6 47 17 88 23 93 21 14 95 -2 240 -50z m-457
-177 c-75 -358 -239 -736 -460 -1061 l-61 -89 -7 59 c-4 33 -17 155 -28 270
-12 116 -33 284 -46 375 l-24 165 23 18 c67 53 226 164 322 225 119 75 297
173 303 167 2 -2 -8 -60 -22 -129z m-1125 -489 c-121 -119 -129 -125 -206
-152 -196 -67 -472 -222 -649 -363 -132 -106 -309 -279 -418 -412 l-37 -45 15
60 c8 33 29 103 45 155 35 109 30 103 229 254 237 178 453 312 705 437 131 64
412 186 436 188 3 1 -51 -55 -120 -122z m364 -18 c21 -138 62 -522 75 -692
l11 -149 -34 -41 c-91 -111 -443 -465 -453 -455 -1 2 4 39 12 83 36 204 45
365 42 700 l-3 331 32 39 c36 45 295 286 301 281 2 -2 9 -46 17 -97z m-742
-402 c-26 -42 -173 -236 -198 -262 -17 -16 -79 -72 -138 -123 -188 -163 -433
-457 -583 -698 l-59 -97 -3 129 -3 128 57 84 c183 269 421 515 666 688 65 46
256 164 266 164 2 0 -1 -6 -5 -13z m227 -517 c-13 -147 -46 -362 -80 -507
l-22 -92 -86 -65 c-103 -76 -264 -187 -268 -183 -1 1 6 43 16 92 43 209 100
650 100 772 0 42 8 57 82 162 44 64 122 168 172 231 l91 114 3 -194 c2 -107
-2 -256 -8 -330z m-551 -406 c-19 -136 -76 -429 -102 -529 l-13 -50 -125 -71
c-68 -40 -125 -71 -126 -70 -5 4 114 312 166 431 57 128 212 437 217 432 2 -2
-5 -66 -17 -143z m-298 -96 c-73 -152 -167 -382 -221 -538 -18 -52 -36 -99
-40 -103 -4 -5 -19 38 -33 95 l-26 103 51 90 c86 152 317 495 333 495 2 0 -27
-64 -64 -142z"/>
</g>
</svg>
